<svg id="Layer_1" data-name="Layer 1" xmlns="http://www.w3.org/2000/svg" viewBox="0 0 713.99 756.25"><defs><style>.cls-1{fill:#3777dd;}.cls-2{fill:#039;}</style></defs><title>ColumbiaDiningTilted</title><path class="cls-1" d="M707,581.68c-5.55,2.38-8.34,3.57-9.11,5.61s0.54,4.77,3.13,10.16l0.16,0.32c1.76,3.67,4,4.48,7.52,2.83,2.78-1.27,5.65-2.47,8.42-3.63l3.41-1.42c6.57-2.79,6.57-2.79,9.27,3.55q7.25,17,14.48,33.93l8.14,19.09c4,9.43,4.28,9.54,13.48,5.78l0.68-.28,0.3-.13c2.36-1,3.74-2.16,4.32-3.61s0.32-3.46-.92-6.15c-3-6.47-5.79-13.15-8.51-19.61-1.13-2.72-2.27-5.44-3.42-8.14l-9.23-21.61c-5.42-12.71-5.42-12.71,7.15-18.08,5.8-2.47,8.71-3.7,9.51-5.82s-0.52-4.8-3.11-10.22l-0.17-.33c-1.72-3.61-3.86-4.41-7.54-2.72-1.63.76-3.33,1.44-5,2.1a71.6,71.6,0,0,0-7.35,3.26c-2.31,1.26-3.93,1.61-5.2,1.15s-2.36-1.84-3.41-4.42c-5.31-13-11-26.21-16.43-38.94q-3.15-7.31-6.29-14.64c-4-9.4-4.25-9.51-13.42-5.86l-0.73.3c-2.52,1-4,2.16-4.61,3.64s-0.35,3.42.86,6.18c5.24,11.88,10.4,24,15.38,35.8q2.88,6.8,5.77,13.58C720,576.14,720,576.14,707,581.68Zm-83.21,48.85c1.84,3.86,4.13,4.68,8,2.91,1.69-.8,3.46-1.51,5.17-2.19a73.06,73.06,0,0,0,7.14-3.19c2.26-1.2,3.9-1.54,5.15-1.09s2.4,1.86,3.47,4.49c4.42,10.81,9.1,21.71,13.6,32.27,3.51,8.17,7.11,16.6,10.58,24.95,1,2.46,2.18,3.84,3.62,4.35s3,0.18,4.93-.88a17.29,17.29,0,0,1,3.53-1.5,14.27,14.27,0,0,0,1.71-.59,5.76,5.76,0,0,0,3.15-2.66c0.77-1.63.49-3.75-.9-6.85-5.25-11.8-10.38-23.88-15.32-35.58q-2.91-6.89-5.85-13.79c-5.36-12.55-5.36-12.55,7.39-18,5.65-2.42,8.5-3.63,9.29-5.72s-0.5-4.81-3.07-10.28l-0.17-.37c-1.7-3.61-3.84-4.39-7.51-2.68-2.75,1.28-5.6,2.46-8.36,3.62-1.15.48-2.31,1-3.46,1.45-6.55,2.77-6.55,2.77-9.23-3.51l-8.31-19.46-3.56-8.34-3.61-8.5q-4.11-9.65-8.24-19.29c-3-6.92-3.26-7-10.3-4.07l-0.69.31a9.24,9.24,0,0,1-1.34.54c-2.72.75-4.34,1.82-5.05,3.34s-0.49,3.7.81,6.62c5.22,11.62,10.27,23.57,15.15,35.11q2.89,6.86,5.81,13.73C643,609,643,609,629.51,614.73c-5.6,2.4-8.12,3.53-8.87,5.54S621.17,625.09,623.77,630.53ZM449.27,785.27c1.11,2.65,2.34,4.13,3.88,4.68s3.06,0.19,5.09-.91a21.76,21.76,0,0,1,4.05-1.73,12.69,12.69,0,0,0,1.42-.51,5.68,5.68,0,0,0,3.19-2.73c0.74-1.59.48-3.61-.81-6.55-5.91-13.42-11.73-27.14-17.36-40.4q-3.23-7.59-6.44-15.16l-2.81-6.55,12.94-5.52c5.42-2.31,8.14-3.48,8.93-5.47s-0.33-4.53-2.56-9.65l-0.18-.42c-1-2.21-2-3.46-3.33-4s-2.83-.27-4.87.68c-4.06,1.89-8.18,3.61-12.53,5.43l-5.47,2.29L424.82,681c-6.28-14.71-12.76-29.92-19.21-44.85-0.45-1.05-2.64-5-3.83-4.71-4.43,1.19-9,2.64-12.83,5.15-1.35.9-.35,6,0.64,8.36,7.81,18.81,15.84,37.69,23.91,56.14,1,2.17,1.16,3.63.68,4.7s-1.55,1.76-3.45,2.35a54.86,54.86,0,0,0-6.12,2.5l-2.69,1.2c-5.06,2.15-7.6,3.23-8.34,5.14s0.34,4.4,2.52,9.4l0.2,0.45c1,2.29,2.11,3.6,3.51,4.12s3,0.28,5.18-.73c3.94-1.86,8-3.53,12.21-5.3,1.77-.74,3.58-1.5,5.42-2.29l2.79,6.54q3.19,7.49,6.4,15C437.56,757.59,443.53,771.52,449.27,785.27ZM514.6,663.85c-2.24,1.26-3.88,1.64-5.16,1.2s-2.49-2-3.71-4.94c-4.31-10.55-8.88-21.19-13.27-31.48-3.47-8.09-7.05-16.45-10.49-24.71-1.15-2.77-2.44-4.31-4-4.87s-3.24-.18-5.38,1a19.35,19.35,0,0,1-3.53,1.5c-2.6.79-4.14,1.86-4.82,3.35s-0.49,3.57.73,6.32c6.28,14.2,12.44,28.74,18.39,42.8q2.81,6.65,5.63,13.29c0.56,1.31,1,2.66,1.6,4.21l0.78,2.15L478.91,679c-5.57,2.37-8.37,3.57-9.18,5.61s0.38,4.64,2.7,9.87l0.18,0.41c0.9,2,1.92,3.21,3.19,3.7s2.72,0.29,4.65-.6c4.1-1.85,8.25-3.6,12.66-5.45l5.59-2.36L524,749.55c2,4.8,3.07,7.22,4.87,7.93,1.51,0.6,3.41,0,6.79-1.48l2-.85c6.85-3,7.14-3.67,4.28-10.38q-7.46-17.59-15-35.18l-5.86-13.74c-5.52-12.91-5.52-12.91,7.32-18.38,5.73-2.45,8.51-3.83,9.28-6s-0.47-4.92-3.51-10.59c-1.67-3.11-3.72-3.88-6.76-2.59-1.49.66-3,1.28-4.56,1.87A65.47,65.47,0,0,0,514.6,663.85ZM301.48,369.42a2.23,2.23,0,0,0,.86-0.36c0.15-.09.33-0.2,0.55-0.32a0.36,0.36,0,0,0,.17-0.38c-17.22-76.41,23.69-133.84,64-159.81,49.41-31.86,128.59-35.47,184.32,19.25a0.34,0.34,0,0,0,.43,0c2.44-1.64,4.9-3.36,7.28-5,5.12-3.56,10.41-7.24,15.83-10.48a147.34,147.34,0,0,1,201.85,52.52c39,67.27,20.4,151.62-43.27,196.23-4.37,3.06-5.07,5.45-3,10.25,21.56,50.08,43.3,101.09,64.32,150.41L811,659.85l3,6.92c-0.64.33-1.26,0.67-1.85,1-1.35.73-2.63,1.41-3.94,2l-88.08,37.57c-91.54,39.05-186.19,79.42-279.25,119.23h0c-2.71,1.15-4.33,1.42-5.61.9s-2.29-1.85-3.4-4.48c-13.34-31.61-27-63.7-40.25-94.73-9.37-22-19.06-44.75-28.56-67.14-1.92-4.53-3.68-6.22-9-4.26-61.34,22.52-134.76-2-170.78-57.11-45.11-69-27.29-159.12,40.59-205.17A142.26,142.26,0,0,1,248,381.36a149.3,149.3,0,0,1,47.91-11.43C297.9,369.78,299.72,369.62,301.48,369.42ZM574.14,658.95c1.1,0.41,2,1.55,2.88,3.7,5.53,13.31,11.31,26.8,16.89,39.84q3,7.12,6.09,14.23c4.22,9.86,4.47,10,13.92,6l0.5-.22,0.1,0c2.39-1,3.71-2.09,4.26-3.48s0.32-3.1-.71-5.43c-5.25-11.87-10.4-24-15.39-35.79q-2.88-6.8-5.77-13.59c-5.74-13.46-5.74-13.46,7.61-19.15,5.41-2.31,8.28-3.61,9.06-5.8s-0.63-5.09-3.41-10.42c-1.74-3.34-3.81-4.21-6.93-2.88L603,626c-2.14,1-4.35,1.89-6.5,2.78-2.77,1.15-5.64,2.34-8.4,3.64-1.52.73-2.63,0.9-3.52,0.56s-1.64-1.31-2.36-3l-1.44-3.49c-0.51-1.25-1-2.48-1.57-3.73-0.93-2.23-1.88-4.45-2.83-6.68-0.75-1.75-1.5-3.5-2.25-5.24-0.38-.9-0.77-1.8-1.15-2.69q-1.74-4-3.47-8.06T566,591.84a0.74,0.74,0,0,0-.07-0.14c-1.43-3.32-2.9-6.7-4.33-10.09l0-.06c-0.72-1.7-1.44-3.42-2.14-5.12s-1.42-3.46-2.1-5.2c-1-2.61-2.21-4.07-3.72-4.6s-3.1-.15-5.21,1.05a16.72,16.72,0,0,1-3.52,1.5c-2.44.7-4,1.72-4.63,3.14-0.74,1.57-.48,3.59.83,6.56,5.3,12,10.5,24.22,15.52,36.08q2.93,6.89,5.87,13.8c5.21,12.23,5.21,12.23-6.88,17.51l-0.24.11c-1.63.71-3,1.27-4.25,1.77-3.37,1.35-5.06,2-5.64,3.43-0.64,1.55.28,3.69,2.27,8.39,0.39,0.91.83,1.93,1.29,3a5.34,5.34,0,0,0,2.72,3.2c1.14,0.45,2.5.29,4.34-.53s3.7-1.58,5.53-2.33c2.77-1.14,5.63-2.31,8.35-3.66C571.77,658.79,573.1,658.55,574.14,658.95Z" transform="translate(-138.89 -138.38)"/><polygon class="cls-2" points="702.41 556.68 713.21 581.99 306.48 755.47 295.69 730.16 702.41 556.68"/><path class="cls-2" d="M698.12,504.49c8.72-3.48,8.72-3.48,12.56,5.49q3.12,7.33,6.28,14.64c5.47,12.72,11.13,25.88,16.43,38.93,1.13,2.77,2.3,4.25,3.82,4.79s3.25,0.16,5.75-1.18a74.91,74.91,0,0,1,7.27-3.24c1.65-.66,3.37-1.35,5-2.11l0.37-.16c3.06-1.3,4.78-.58,6.28,2.56l0.17,0.34c2.5,5.24,3.76,7.87,3.08,9.69s-3.51,3-9.15,5.45c-13.05,5.57-13.12,5.74-7.49,19l9.22,21.61c1.15,2.71,2.29,5.42,3.43,8.13,2.71,6.47,5.52,13.15,8.51,19.63,1.16,2.52,1.44,4.26.9,5.62S768.7,656,766.31,657l-0.68.28c-8.76,3.57-8.76,3.57-12.6-5.42l-8.15-19.09q-7.23-17-14.47-33.93c-2.92-6.82-3.11-6.9-10.17-3.91-1.13.48-2.27,1-3.41,1.42l-4,1.69c-1.47.63-2.94,1.28-4.4,1.95-3.25,1.49-5,.82-6.63-2.5l-0.16-.32c-2.51-5.22-3.78-7.85-3.11-9.62s3.37-2.94,8.75-5.23c13.5-5.76,13.57-5.94,7.91-19.22q-2.89-6.78-5.77-13.57c-5-11.76-10.14-23.93-15.39-35.81-1.13-2.57-1.39-4.32-.85-5.65s1.88-2.34,4.23-3.27Z" transform="translate(-138.89 -138.38)"/><path d="M697.86,587.29c0.77-2,3.57-3.24,9.11-5.61,13-5.54,13-5.54,7.56-18.33q-2.9-6.79-5.77-13.58c-5-11.76-10.14-23.92-15.38-35.8-1.21-2.76-1.48-4.66-.86-6.18s2.09-2.63,4.61-3.64l0.73-.3c9.17-3.65,9.42-3.55,13.42,5.86q3.13,7.33,6.29,14.64c5.47,12.74,11.12,25.89,16.43,38.94,1.05,2.57,2.11,3.94,3.41,4.42s2.89,0.11,5.2-1.15A71.6,71.6,0,0,1,750,563.3c1.64-.67,3.35-1.35,5-2.1,3.68-1.68,5.82-.89,7.54,2.72l0.17,0.33c2.59,5.42,3.89,8.14,3.11,10.22s-3.71,3.35-9.51,5.82c-12.57,5.37-12.57,5.37-7.15,18.08L758.34,620c1.15,2.71,2.29,5.42,3.42,8.14,2.71,6.46,5.52,13.14,8.51,19.61,1.25,2.69,1.52,4.59.92,6.15s-2,2.6-4.32,3.61l-0.3.13-0.68.28c-9.2,3.76-9.46,3.65-13.48-5.78L744.26,633q-7.23-17-14.48-33.93c-2.7-6.34-2.7-6.34-9.27-3.55L717.1,597c-2.78,1.15-5.64,2.36-8.42,3.63-3.54,1.65-5.76.84-7.52-2.83l-0.16-.32C698.4,592.06,697.09,589.35,697.86,587.29Zm0.64,0.25c-0.67,1.78.59,4.4,3.11,9.62l0.16,0.32c1.6,3.32,3.38,4,6.63,2.5,1.46-.66,2.93-1.32,4.4-1.95l4-1.69c1.14-.46,2.28-0.94,3.41-1.42,7.06-3,7.25-2.91,10.17,3.91q7.25,17,14.47,33.93L753,651.86c3.84,9,3.84,9,12.6,5.42l0.68-.28c2.39-1,3.72-2,4.24-3.35s0.26-3.1-.9-5.62c-3-6.48-5.8-13.16-8.51-19.63-1.14-2.71-2.28-5.42-3.43-8.13l-9.22-21.61c-5.63-13.22-5.57-13.39,7.49-19,5.63-2.4,8.45-3.61,9.15-5.45s-0.58-4.45-3.08-9.69l-0.17-.34c-1.5-3.14-3.22-3.86-6.28-2.56l-0.37.16c-1.64.76-3.36,1.45-5,2.11a74.91,74.91,0,0,0-7.27,3.24c-2.51,1.34-4.28,1.72-5.75,1.18s-2.69-2-3.82-4.79c-5.29-13.05-11-26.21-16.43-38.93q-3.15-7.31-6.28-14.64c-3.84-9-3.84-9-12.56-5.49l-0.73.3c-2.35.93-3.7,2-4.23,3.27s-0.29,3.08.85,5.65c5.25,11.88,10.4,24.05,15.39,35.81q2.88,6.78,5.77,13.57c5.66,13.28,5.59,13.47-7.91,19.22C701.87,584.6,699.17,585.75,698.5,587.54Z" transform="translate(-138.89 -138.38)"/><path class="cls-2" d="M631.46,632.83c-3.49,1.66-5.41.93-7.08-2.58-2.45-5.11-3.79-7.93-3.1-9.74s3.22-2.91,8.49-5.15c14-6,14-6.15,8.16-19.92q-2.92-6.86-5.83-13.73c-4.88-11.54-9.92-23.49-15.15-35.12-1.21-2.72-1.48-4.64-.81-6.05s2.09-2.27,4.62-3a8.39,8.39,0,0,0,1.45-.58c0.22-.1.43-0.2,0.66-0.3,6.62-2.8,6.62-2.8,9.41,3.71q4,9.37,8,18.77l7.4,17.36q4.14,9.72,8.3,19.45c2.9,6.78,3.1,6.85,10.13,3.87l3.45-1.44c2.77-1.15,5.63-2.34,8.39-3.63,3.34-1.55,5.06-.94,6.61,2.34l0.17,0.38c2.49,5.29,3.74,7.95,3.06,9.75s-3.45,3-8.95,5.34c-13.23,5.63-13.29,5.82-7.73,18.86,2,4.58,3.9,9.19,5.86,13.78,4.95,11.7,10.06,23.79,15.32,35.58,1.29,2.92,1.58,4.85.9,6.29-0.6,1.28-2,2.22-4.43,2.88a15.84,15.84,0,0,0-1.79.64q-0.89.38-1.87,0.91c-1.8,1-3.24,1.25-4.38.85s-2.27-1.71-3.22-4c-3.47-8.33-7.09-16.78-10.58-24.95-4.52-10.55-9.18-21.46-13.6-32.25-1.15-2.81-2.35-4.31-3.88-4.86s-3.24-.18-5.69,1.13a72.5,72.5,0,0,1-7.08,3.15C634.95,631.31,633.17,632,631.46,632.83Z" transform="translate(-138.89 -138.38)"/><path d="M641.15,559.42l3.61,8.5-3.84-9q-4-9.4-8-18.78Q637,549.78,641.15,559.42Z" transform="translate(-138.89 -138.38)"/><path d="M624.38,630.24c1.67,3.52,3.59,4.24,7.08,2.58,1.71-.81,3.48-1.52,5.21-2.21a72.5,72.5,0,0,0,7.08-3.15c2.45-1.31,4.21-1.66,5.69-1.13s2.73,2.05,3.88,4.86c4.42,10.8,9.08,21.7,13.6,32.25,3.49,8.17,7.11,16.62,10.58,24.95,1,2.28,2,3.54,3.22,4s2.58,0.12,4.38-.85q1-.53,1.87-0.91a15.84,15.84,0,0,1,1.79-.64c2.38-.67,3.83-1.6,4.43-2.88,0.68-1.44.39-3.37-.9-6.29C687,669,681.93,656.93,677,645.23c-2-4.59-3.9-9.2-5.86-13.78-5.56-13-5.49-13.23,7.73-18.86,5.49-2.34,8.24-3.52,8.95-5.34s-0.57-4.46-3.06-9.75l-0.17-.38c-1.54-3.28-3.27-3.9-6.61-2.34-2.76,1.29-5.62,2.48-8.39,3.63l-3.45,1.44c-7,3-7.23,2.91-10.13-3.87q-4.16-9.72-8.3-19.45l-7.4-17.36q-4-9.39-8-18.77c-2.79-6.51-2.79-6.51-9.41-3.71-0.23.09-.44,0.2-0.66,0.3a8.39,8.39,0,0,1-1.45.58c-2.54.7-4,1.64-4.62,3s-0.4,3.33.81,6.05c5.23,11.63,10.27,23.58,15.15,35.12q2.91,6.88,5.83,13.73c5.88,13.77,5.79,14-8.16,19.92-5.27,2.24-7.83,3.41-8.49,5.15S621.93,625.14,624.38,630.24Zm-0.61.29c-2.6-5.44-3.91-8.18-3.12-10.27s3.27-3.15,8.87-5.54C643,609,643,609,637.3,595.71q-2.92-6.86-5.81-13.73c-4.88-11.54-9.92-23.49-15.15-35.11-1.3-2.92-1.57-5-.81-6.62s2.33-2.59,5.05-3.34a9.24,9.24,0,0,0,1.34-.54l0.69-.31c7-3,7.33-2.85,10.3,4.07q4,9.39,8,18.78l3.84,9,3.56,8.34,8.31,19.46c2.68,6.28,2.68,6.28,9.23,3.51,1.15-.5,2.31-1,3.46-1.45,2.76-1.15,5.61-2.34,8.36-3.62,3.67-1.71,5.81-.93,7.51,2.68l0.17,0.37c2.57,5.47,3.86,8.2,3.07,10.28s-3.64,3.31-9.29,5.72c-12.74,5.43-12.74,5.43-7.39,18q2.93,6.89,5.85,13.79c4.95,11.7,10.07,23.78,15.32,35.58,1.39,3.1,1.67,5.22.9,6.85a5.76,5.76,0,0,1-3.15,2.66,14.27,14.27,0,0,1-1.71.59,17.29,17.29,0,0,0-3.53,1.5c-2,1.06-3.59,1.36-4.93.88s-2.6-1.89-3.62-4.35c-3.47-8.34-7.08-16.78-10.58-24.95-4.51-10.55-9.18-21.46-13.6-32.27-1.07-2.63-2.14-4-3.47-4.49s-2.89-.11-5.15,1.09a73.06,73.06,0,0,1-7.14,3.19c-1.71.68-3.48,1.39-5.17,2.19C627.9,635.21,625.61,634.4,623.77,630.53Z" transform="translate(-138.89 -138.38)"/><path d="M580.81,626.47c-0.51-1.24-1-2.48-1.57-3.73C579.77,624,580.3,625.22,580.81,626.47Z" transform="translate(-138.89 -138.38)"/><path d="M580.18,626.72c-0.51-1.24-1-2.48-1.57-3.73C579.14,624.24,579.67,625.48,580.18,626.72Z" transform="translate(-138.89 -138.38)"/><path d="M576.23,617.36c0.65,1.51,1.28,3,1.92,4.51C577.51,620.36,576.87,618.85,576.23,617.36Z" transform="translate(-138.89 -138.38)"/><path d="M576.42,616.06l-2.25-5.24C574.92,612.56,575.67,614.3,576.42,616.06Z" transform="translate(-138.89 -138.38)"/><path d="M568.94,600.33c1.11,2.6,2.22,5.19,3.33,7.78l-3.34-7.76-1.77-4.13C567.77,597.59,568.35,599,568.94,600.33Z" transform="translate(-138.89 -138.38)"/><path d="M565.95,591.7c-1.43-3.32-2.9-6.7-4.33-10.09C563.05,585,564.52,588.38,565.95,591.7Z" transform="translate(-138.89 -138.38)"/><path d="M559.45,576.43c0.7,1.7,1.41,3.42,2.14,5.12C560.86,579.85,560.15,578.13,559.45,576.43Z" transform="translate(-138.89 -138.38)"/><path class="cls-2" d="M548.75,568.27c1.92-1.09,3.44-1.42,4.65-1s2.37,1.8,3.31,4.2c2.74,6.94,5.76,13.9,8.68,20.64l1.77,4.1,1.77,4.13,3.34,7.76,0.13,0.29c1.27,3,2.56,5.94,3.83,9,0.65,1.49,1.28,3,1.92,4.51l0.05,0.11c0.14,0.34.29,0.68,0.42,1,0.53,1.25,1.05,2.49,1.57,3.73l1.44,3.49c0.79,1.93,1.64,3,2.75,3.41s2.36,0.23,4-.57c2.74-1.3,5.6-2.49,8.37-3.63,2.15-.9,4.37-1.81,6.52-2.78,2.92-1.33,4.65-.61,6.26,2.48,2.69,5.16,4.06,8,3.36,9.87s-3.59,3.24-8.68,5.42c-13.84,5.9-13.91,6.08-8,20q2.91,6.79,5.78,13.59c5,11.76,10.14,23.92,15.38,35.79,1,2.16,1.17,3.72.7,4.91s-1.7,2.15-4,3.14l-0.5.22c-9,3.79-9,3.79-13-5.64q-3-7.12-6.09-14.23c-5.58-13-11.36-26.51-16.89-39.83-1-2.34-2-3.6-3.27-4.08a5.26,5.26,0,0,0-4,.42l-0.75.35c-2.7,1.35-5.55,2.51-8.31,3.64-1.82.75-3.71,1.53-5.55,2.34-1.63.74-2.84,0.89-3.81,0.5a4.69,4.69,0,0,1-2.34-2.82c-0.47-1.13-.89-2.14-1.29-3.06-1.86-4.38-2.8-6.58-2.27-7.86s2.17-1.82,5.27-3.06c1.23-.5,2.62-1.06,4.26-1.77l0.24-.11c12.59-5.49,12.66-5.66,7.23-18.4l-5.86-13.81c-5-11.86-10.21-24.12-15.52-36.09-1.23-2.77-1.49-4.61-.85-6s1.95-2.13,4.2-2.77A16.79,16.79,0,0,0,548.75,568.27Z" transform="translate(-138.89 -138.38)"/><path d="M553.4,567.28c-1.21-.43-2.73-0.1-4.65,1a16.79,16.79,0,0,1-3.67,1.57c-2.26.64-3.62,1.54-4.2,2.77s-0.38,3.22.85,6c5.3,12,10.5,24.23,15.52,36.09l5.86,13.81c5.43,12.74,5.37,12.91-7.23,18.4l-0.24.11c-1.64.71-3,1.27-4.26,1.77-3.1,1.24-4.8,1.93-5.27,3.06s0.41,3.48,2.27,7.86c0.4,0.92.82,1.93,1.29,3.06a4.69,4.69,0,0,0,2.34,2.82c1,0.38,2.18.23,3.81-.5,1.84-.81,3.73-1.59,5.55-2.34,2.76-1.13,5.6-2.29,8.31-3.64l0.75-.35a5.26,5.26,0,0,1,4-.42c1.3,0.48,2.3,1.74,3.27,4.08,5.53,13.31,11.31,26.79,16.89,39.83q3,7.12,6.09,14.23c4,9.44,4,9.44,13,5.64l0.5-.22c2.28-1,3.5-1.92,4-3.14s0.26-2.75-.7-4.91C612.19,702,607,689.8,602.05,678q-2.88-6.8-5.78-13.59c-5.94-14-5.87-14.14,8-20,5.09-2.18,8-3.49,8.68-5.42s-0.68-4.71-3.36-9.87c-1.61-3.09-3.33-3.81-6.26-2.48-2.15,1-4.37,1.88-6.52,2.78-2.77,1.14-5.62,2.33-8.37,3.63-1.69.8-3,1-4,.57s-2-1.48-2.75-3.41l-1.44-3.49c-0.51-1.25-1-2.48-1.57-3.73-0.13-.34-0.28-0.68-0.42-1l-0.05-.11c-0.64-1.51-1.27-3-1.92-4.51-1.27-3-2.56-6-3.83-9l-0.13-.29c-1.11-2.59-2.22-5.18-3.33-7.78-0.59-1.36-1.17-2.74-1.77-4.11l-1.77-4.1c-2.92-6.73-5.94-13.69-8.68-20.64C555.77,569.07,554.72,567.73,553.4,567.28Zm-5,.41c2.1-1.2,3.8-1.54,5.21-1.05s2.69,2,3.72,4.6c0.68,1.73,1.39,3.46,2.1,5.2s1.41,3.42,2.14,5.12l0,0.06c1.43,3.39,2.9,6.77,4.33,10.09a0.74,0.74,0,0,0,.07.14q1.77,4.11,3.54,8.23t3.47,8.06c0.38,0.89.77,1.79,1.15,2.69l2.25,5.24c0.94,2.22,1.89,4.44,2.83,6.68,0.53,1.25,1.05,2.49,1.57,3.73l1.44,3.49c0.72,1.74,1.44,2.69,2.36,3s2,0.17,3.52-.56c2.76-1.3,5.63-2.49,8.4-3.64,2.15-.88,4.36-1.81,6.5-2.78l0.21-.09c3.12-1.32,5.19-.45,6.93,2.88,2.78,5.33,4.19,8.22,3.41,10.42s-3.65,3.49-9.06,5.8c-13.35,5.7-13.35,5.7-7.61,19.15q2.9,6.79,5.77,13.59c5,11.76,10.14,23.92,15.39,35.79,1,2.34,1.25,4.07.71,5.43s-1.86,2.46-4.26,3.48l-0.1,0-0.5.22c-9.45,4-9.7,3.86-13.92-6q-3-7.12-6.09-14.23c-5.58-13-11.36-26.53-16.89-39.84-0.88-2.15-1.78-3.29-2.88-3.7s-2.37-.16-4.17.74c-2.72,1.35-5.58,2.52-8.35,3.66-1.83.74-3.7,1.52-5.53,2.33s-3.2,1-4.34.53A5.34,5.34,0,0,1,549,663c-0.46-1.12-.89-2.14-1.29-3-2-4.7-2.91-6.84-2.27-8.39,0.58-1.39,2.27-2.08,5.64-3.43,1.23-.5,2.62-1.06,4.25-1.77l0.24-.11c12.1-5.27,12.1-5.27,6.88-17.51q-2.95-6.91-5.87-13.8c-5-11.86-10.21-24.12-15.52-36.08-1.31-3-1.57-5-.83-6.56,0.66-1.42,2.19-2.44,4.63-3.14A16.72,16.72,0,0,0,548.42,567.68Z" transform="translate(-138.89 -138.38)"/><path class="cls-2" d="M491.83,628.9c4.41,10.29,9,20.94,13.27,31.47,1.32,3.21,2.52,4.76,4.12,5.31s3.3,0.12,5.72-1.25a67.1,67.1,0,0,1,8.2-3.67c1.53-.59,3.08-1.21,4.59-1.88l0.11-.05c2.61-1.11,4.3-.43,5.77,2.35,2.87,5.37,4.15,8.1,3.47,10s-3.37,3.26-8.91,5.63c-13.32,5.69-13.4,5.87-7.68,19.28l5.86,13.74q7.5,17.58,15,35.18c2.7,6.37,2.59,6.64-3.95,9.48-4.47,1.94-6.71,2.92-8.22,2.32s-2.53-2.94-4.51-7.57l-25.47-59.72a0.32,0.32,0,0,0-.44-0.17l-5.91,2.49-5.4,2.29c-2.46,1-4.87,2.09-7.27,3.17-1.76.8-3.08,1-4.14,0.58s-2-1.47-2.8-3.34l-0.19-.4c-2.24-5.07-3.37-7.61-2.68-9.35s3.4-2.94,8.81-5.24l12.72-5.42a0.35,0.35,0,0,0,.19-0.43c-0.33-.87-0.62-1.68-0.9-2.46-0.56-1.55-1-2.91-1.62-4.24l-5.63-13.29c-6-14.06-12.1-28.59-18.38-42.8-1.13-2.56-1.37-4.4-.75-5.77s2-2.25,4.4-3a19.05,19.05,0,0,0,3.67-1.56c2-1.1,3.53-1.4,4.82-.95s2.57,1.91,3.63,4.49C484.79,612.45,488.37,620.81,491.83,628.9Z" transform="translate(-138.89 -138.38)"/><path d="M492.45,628.63c4.4,10.29,9,20.94,13.27,31.48,1.22,3,2.33,4.46,3.71,4.94s2.92,0.06,5.16-1.2a65.47,65.47,0,0,1,8.28-3.72c1.51-.59,3.07-1.21,4.56-1.87,3-1.3,5.09-.53,6.76,2.59,3,5.67,4.29,8.39,3.51,10.59s-3.55,3.58-9.28,6c-12.84,5.47-12.84,5.47-7.32,18.38L527,709.6q7.5,17.6,15,35.18c2.85,6.71,2.57,7.39-4.28,10.38l-2,.85c-3.38,1.44-5.28,2.08-6.79,1.48-1.8-.72-2.82-3.13-4.87-7.93l-25.34-59.4-5.59,2.36c-4.4,1.85-8.56,3.6-12.66,5.45-1.93.89-3.43,1.07-4.65,0.6s-2.29-1.66-3.19-3.7l-0.18-.41c-2.33-5.23-3.49-7.86-2.7-9.87s3.61-3.24,9.18-5.61l12.43-5.3-0.78-2.15c-0.56-1.55-1-2.9-1.6-4.21q-2.82-6.65-5.63-13.29c-6-14.06-12.11-28.59-18.39-42.8-1.22-2.75-1.45-4.76-.73-6.32s2.22-2.56,4.82-3.35a19.35,19.35,0,0,0,3.53-1.5c2.14-1.18,3.89-1.51,5.38-1s2.89,2.11,4,4.87C485.4,612.18,489,620.54,492.45,628.63Zm12.64,31.74c-4.31-10.54-8.86-21.18-13.27-31.47-3.46-8.09-7-16.45-10.49-24.72-1.06-2.57-2.22-4-3.63-4.49s-2.86-.15-4.82.95a19.05,19.05,0,0,1-3.67,1.56c-2.4.73-3.8,1.67-4.4,3s-0.38,3.21.75,5.77c6.28,14.2,12.43,28.74,18.38,42.8L489.57,667c0.57,1.33,1.06,2.69,1.62,4.24,0.28,0.78.57,1.59,0.9,2.46a0.35,0.35,0,0,1-.19.43l-12.72,5.42c-5.41,2.31-8.11,3.46-8.81,5.24s0.44,4.28,2.68,9.35l0.19,0.4c0.82,1.87,1.72,2.93,2.8,3.34s2.38,0.22,4.14-.58c2.4-1.08,4.81-2.12,7.27-3.17l5.4-2.29,5.91-2.49a0.32,0.32,0,0,1,.44.17l25.47,59.72c2,4.64,3,7,4.51,7.57s3.75-.38,8.22-2.32c6.54-2.84,6.64-3.11,3.95-9.48q-7.48-17.6-15-35.18l-5.86-13.74c-5.72-13.41-5.64-13.59,7.68-19.28,5.55-2.36,8.23-3.69,8.91-5.63s-0.6-4.68-3.47-10c-1.48-2.77-3.16-3.45-5.77-2.35l-0.11.05c-1.51.67-3.07,1.29-4.59,1.88a67.1,67.1,0,0,0-8.2,3.67c-2.42,1.36-4.23,1.76-5.72,1.25S506.42,663.59,505.1,660.37Z" transform="translate(-138.89 -138.38)"/><path class="cls-2" d="M431.93,699.37a0.33,0.33,0,0,0,.44.17c2-.83,3.88-1.64,5.78-2.42,4.35-1.82,8.47-3.55,12.55-5.45,1.85-.86,3.24-1.07,4.34-0.66s2.07,1.58,3,3.6l0.18,0.42c2.14,4.95,3.22,7.44,2.55,9.13s-3.32,2.85-8.57,5.09l-13.24,5.65a0.35,0.35,0,0,0-.19.44l2.94,6.88q3.22,7.57,6.44,15.15c5.63,13.28,11.45,27,17.37,40.41,1.19,2.71,1.45,4.61.82,6s-2,2.18-4.2,2.86a20.36,20.36,0,0,0-2.11.77,22.06,22.06,0,0,0-2.07,1c-1.84,1-3.33,1.29-4.54.86s-2.45-1.83-3.48-4.29c-5.75-13.75-11.71-27.7-17.47-41.17q-3.21-7.49-6.4-15L423.11,722a0.35,0.35,0,0,0-.46-0.18c-1.95.84-3.86,1.63-5.72,2.41-4.25,1.77-8.28,3.45-12.24,5.32-2,.94-3.46,1.15-4.65.71s-2.21-1.66-3.12-3.77l-0.2-.47c-2.1-4.83-3.17-7.25-2.52-8.87s3.1-2.68,8-4.77c0.91-.38,1.81-0.8,2.7-1.2a54.59,54.59,0,0,1,6-2.46c2.09-.67,3.32-1.53,3.87-2.72s0.37-2.88-.67-5.25c-8.06-18.44-16.11-37.32-23.9-56.13-1.14-2.73-1.65-7-.89-7.54,3.71-2.46,8.26-3.88,12.6-5.05,0.48,0,2.23,2.39,3.05,4.32,6.46,14.93,12.94,30.14,19.21,44.85Z" transform="translate(-138.89 -138.38)"/><path d="M445.36,893.84L852.09,720.37l-10.8-25.31L434.57,868.53Zm0,0.76a0.32,0.32,0,0,1-.44-0.17l-11.06-25.94A0.33,0.33,0,0,1,434,868L841.34,694.31a0.35,0.35,0,0,1,.45.17l11.06,25.94a0.35,0.35,0,0,1-.18.46Z" transform="translate(-138.89 -138.38)"/><path d="M453.15,790c-1.54-.55-2.77-2-3.88-4.68-5.74-13.76-11.71-27.68-17.47-41.16q-3.19-7.49-6.4-15l-2.79-6.54c-1.84.79-3.65,1.54-5.42,2.29-4.25,1.77-8.27,3.44-12.21,5.3-2.17,1-3.8,1.24-5.18.73s-2.51-1.83-3.51-4.12l-0.2-.45c-2.18-5-3.28-7.51-2.52-9.4s3.28-3,8.34-5.14l2.69-1.2a54.86,54.86,0,0,1,6.12-2.5c1.89-.59,3-1.35,3.45-2.35s0.28-2.53-.68-4.7c-8.06-18.44-16.1-37.33-23.91-56.14-1-2.37-2-7.46-.64-8.36,3.78-2.51,8.4-4,12.83-5.15,1.19-.32,3.38,3.66,3.83,4.71,6.45,14.93,12.93,30.14,19.21,44.85l7.6,17.82,5.47-2.29c4.35-1.82,8.47-3.54,12.53-5.43,2-.95,3.58-1.16,4.87-0.68s2.37,1.76,3.33,4l0.18,0.42c2.23,5.12,3.34,7.68,2.56,9.65s-3.51,3.16-8.93,5.47l-12.94,5.52,2.81,6.55q3.22,7.57,6.44,15.16c5.63,13.27,11.45,27,17.36,40.4,1.29,2.94,1.55,5,.81,6.55a5.68,5.68,0,0,1-3.19,2.73,12.69,12.69,0,0,1-1.42.51,21.76,21.76,0,0,0-4.05,1.73C456.22,790.14,454.55,790.44,453.15,790Zm-15-92.83c-1.9.79-3.82,1.59-5.78,2.42a0.33,0.33,0,0,1-.44-0.17l-7.74-18.14c-6.27-14.71-12.75-29.93-19.21-44.85-0.83-1.93-2.58-4.29-3.05-4.32-4.34,1.18-8.89,2.59-12.6,5.05-0.75.51-.24,4.8,0.89,7.54,7.79,18.81,15.84,37.68,23.9,56.13,1,2.37,1.24,4,.67,5.25s-1.77,2.05-3.87,2.72a54.59,54.59,0,0,0-6,2.46c-0.9.4-1.79,0.82-2.7,1.2-4.89,2.09-7.33,3.13-8,4.77s0.41,4,2.52,8.87l0.2,0.47c0.91,2.11,1.91,3.31,3.12,3.77s2.67,0.23,4.65-.71c4-1.87,8-3.55,12.24-5.32,1.87-.78,3.78-1.57,5.72-2.41a0.35,0.35,0,0,1,.46.18l2.92,6.85q3.19,7.49,6.4,15c5.76,13.48,11.73,27.42,17.47,41.17,1,2.46,2.13,3.82,3.48,4.29s2.7,0.14,4.54-.86a22.06,22.06,0,0,1,2.07-1,20.36,20.36,0,0,1,2.11-.77c2.25-.68,3.62-1.61,4.2-2.86s0.37-3.29-.82-6c-5.92-13.42-11.74-27.14-17.37-40.41q-3.21-7.58-6.44-15.15l-2.94-6.88a0.35,0.35,0,0,1,.19-0.44l13.24-5.65c5.24-2.24,7.88-3.36,8.57-5.09s-0.4-4.19-2.55-9.13l-0.18-.42c-0.89-2-1.83-3.17-3-3.6s-2.49-.21-4.34.66C446.63,693.57,442.51,695.3,438.16,697.12Z" transform="translate(-138.89 -138.38)"/><path class="cls-2" d="M385.58,178.89c43.17-17.29,86.73-16.29,129.47,2.95,9.81,4.43,19.08,10.53,28,16.43,1.81,1.2,3.62,2.38,5.43,3.55,3.16,2.05,5.31,2.09,8.25.15,42.08-27.74,87.79-35.31,135.86-22.51,42.63,11.35,75.73,36.15,98.35,73.71,28.28,46.93,32.45,97,12.4,148.82a155.06,155.06,0,0,1-51,67.88c-3.87,3-4.49,5.42-2.5,10,21.81,50.85,43.88,102.6,65.22,152.66l18.44,43.25L426.16,849.61l-2.72-6.39L409,809.48c-17.7-41.46-36-84.34-53.85-126.56-2-4.66-4.2-5.76-9.16-4.5-38,9.59-75.46,5.88-111.45-11-29.14-13.68-52.29-34.17-68.82-60.89C139.68,564.37,133,519.36,146,472.7c11.51-41.4,36.11-74,73.13-97a158.29,158.29,0,0,1,57-21.72c4.7-.8,5.36-2.7,5.13-6.93-3.46-65.31,21.89-116.93,75.38-153.43,3.24-2.21,3.77-4.33,1.81-7.33-1-1.56-1.9-3.18-2.91-5.07L354,178.43a0.33,0.33,0,0,0-.45-0.13l-3.29,1.58c-2.37,1.14-4.59,2.21-6.81,3.4-6.17,3.35-6.35,3.28-9.84-2.9l-0.28-.5-0.54-1c-1.87-3.56-2.71-5.38-2.29-6.71s2.18-2.35,5.81-4.19c2-1,4-2.15,6.12-3.34,1-.57,2.08-1.17,3.2-1.78a0.34,0.34,0,0,0,.14-0.45c-0.64-1.31-1.25-2.6-1.86-3.87-1.39-2.87-2.68-5.59-4.18-8.25-1.08-1.93-1.41-3.41-1-4.62s1.53-2.29,3.59-3.3l0.43-.22c4.89-2.39,7.33-3.59,9.08-3s3,3.21,5.56,8.38c1.86,3.85,2.8,5.78,4.3,6.25s3.34-.56,7-2.62c5.4-3,8.32-4.56,10.3-3.89s3.25,3.41,5.79,9.11c1.46,3.28.79,5.19-2.4,6.79-2.89,1.46-5.79,3-8.59,4.44l-3.61,1.87a0.37,0.37,0,0,0-.18.35c0.05,0.41.08,0.75,0.1,1a4.7,4.7,0,0,0,.21,1.26c2,5.53,3.06,8.3,5,9.18s4.53-.19,9.74-2.27ZM354.23,657.48c4.79-1.75,6.29-.51,8.16,3.88,9.5,22.4,19.19,45.14,28.58,67.15,13.22,31,26.9,63.12,40.23,94.74,1.18,2.8,2.32,4.25,3.77,4.84s3.25,0.33,6.14-.91h0c93.06-39.8,187.71-80.19,279.25-119.23l88.08-37.58c1.33-.57,2.62-1.27,4-2l2.11-1.13a0.34,0.34,0,0,0,.16-0.43l-3.08-7.2q-8.12-19.06-16.26-38.13c-21-49.32-42.75-100.32-64.31-150.41-1.92-4.46-1.3-6.58,2.77-9.43,31.13-21.81,52.67-53.77,60.66-90s1.87-74.26-17.18-107.13a148,148,0,0,0-202.79-52.75c-5.45,3.24-10.76,6.94-15.87,10.51-2.31,1.6-4.68,3.26-7,4.86a146.83,146.83,0,0,0-93-42c-32.69-2.4-65.35,5.73-92,22.9a150.94,150.94,0,0,0-55.71,65.52C298,302.91,295,335.67,302.34,368.26c-0.14.08-.26,0.14-0.36,0.22a1.59,1.59,0,0,1-.58.27c-1.75.19-3.56,0.35-5.55,0.49-26.74,2-51.11,10.31-72.43,24.77-33.14,22.49-55.57,56-63.16,94.38s0.36,78,22.39,111.72C218.83,655.45,292.6,680.12,354.23,657.48Z" transform="translate(-138.89 -138.38)"/><path d="M551.34,227.79C495.6,173.07,416.43,176.68,367,208.54c-40.27,26-81.18,83.4-64,159.81a0.36,0.36,0,0,1-.17.38c-0.22.12-.4,0.22-0.55,0.32a2.23,2.23,0,0,1-.86.36c-1.76.2-3.58,0.37-5.58,0.51A149.3,149.3,0,0,0,248,381.36a142.26,142.26,0,0,0-24.19,13.22c-67.88,46-85.7,136.17-40.59,205.17,36,55.08,109.44,79.63,170.78,57.11,5.34-2,7.1-.27,9,4.26,9.5,22.39,19.19,45.14,28.56,67.14,13.23,31,26.91,63.12,40.25,94.73,1.11,2.62,2.12,4,3.4,4.48s2.9,0.26,5.61-.9h0c93.06-39.8,187.72-80.18,279.25-119.23l88.08-37.57c1.31-.57,2.59-1.25,3.94-2,0.59-.32,1.2-0.66,1.85-1l-3-6.92-16.24-38.12c-21-49.32-42.77-100.33-64.32-150.41-2.06-4.8-1.36-7.19,3-10.25,63.67-44.61,82.27-129,43.27-196.23a147.34,147.34,0,0,0-201.85-52.52c-5.43,3.23-10.71,6.92-15.83,10.48-2.38,1.66-4.84,3.38-7.28,5A0.34,0.34,0,0,1,551.34,227.79Zm-92.72-42.72a146.83,146.83,0,0,1,93,42c2.36-1.6,4.74-3.26,7-4.86,5.12-3.57,10.43-7.27,15.87-10.51a148,148,0,0,1,202.79,52.75c19.05,32.87,25.15,70.92,17.18,107.13s-29.53,68.19-60.66,90c-4.06,2.85-4.69,5-2.77,9.43,21.56,50.09,43.29,101.09,64.31,150.41q8.14,19.06,16.26,38.13l3.08,7.2a0.34,0.34,0,0,1-.16.43l-2.11,1.13c-1.38.73-2.67,1.43-4,2l-88.08,37.58c-91.54,39-186.19,79.42-279.25,119.23h0c-2.89,1.24-4.68,1.5-6.14.91s-2.59-2-3.77-4.84c-13.34-31.61-27-63.7-40.23-94.74-9.38-22-19.07-44.75-28.58-67.15-1.86-4.39-3.37-5.64-8.16-3.88-61.63,22.64-135.4-2-171.58-57.36-22-33.68-30-73.35-22.39-111.72s30-71.9,63.16-94.38c21.32-14.46,45.69-22.79,72.43-24.77,2-.14,3.8-0.31,5.55-0.49a1.59,1.59,0,0,0,.58-0.27c0.1-.07.22-0.14,0.36-0.22-7.29-32.59-4.32-65.34,8.59-94.75A150.94,150.94,0,0,1,366.64,208C393.27,190.81,425.92,182.68,458.61,185.08Z" transform="translate(-138.89 -138.38)"/><path d="M355.19,682.92C373,725.15,391.34,768,409,809.48l14.39,33.74,2.72,6.39L833.6,675.82l-18.44-43.25c-21.34-50.05-43.41-101.81-65.22-152.66-2-4.62-1.37-7.06,2.5-10a155.06,155.06,0,0,0,51-67.88c20-51.82,15.88-101.89-12.4-148.82-22.62-37.56-55.72-62.37-98.35-73.71-48.07-12.81-93.79-5.23-135.86,22.51-2.95,1.94-5.1,1.9-8.25-.15-1.81-1.18-3.62-2.35-5.43-3.55-9-5.9-18.23-12-28-16.43-42.73-19.24-86.29-20.23-129.47-2.95l-0.51.21c-5.21,2.08-7.82,3.13-9.74,2.27s-3-3.65-5-9.18a4.7,4.7,0,0,1-.21-1.26c0-.29-0.05-0.63-0.1-1a0.37,0.37,0,0,1,.18-0.35l3.61-1.87c2.8-1.47,5.7-3,8.59-4.44,3.18-1.6,3.86-3.5,2.4-6.79-2.54-5.69-3.84-8.46-5.79-9.11s-4.9.88-10.3,3.89c-3.69,2.06-5.53,3.09-7,2.62s-2.44-2.41-4.3-6.25c-2.51-5.17-3.78-7.77-5.56-8.38s-4.19.6-9.08,3l-0.43.22c-2.06,1-3.21,2.05-3.59,3.3s0,2.69,1,4.62c1.49,2.66,2.79,5.38,4.18,8.25,0.61,1.27,1.22,2.56,1.86,3.87a0.34,0.34,0,0,1-.14.45c-1.12.61-2.17,1.21-3.2,1.78-2.11,1.19-4.1,2.32-6.12,3.34-3.63,1.84-5.38,2.85-5.81,4.19s0.42,3.16,2.29,6.71l0.54,1,0.28,0.5c3.49,6.18,3.67,6.25,9.84,2.9,2.22-1.19,4.44-2.26,6.81-3.4l3.29-1.58a0.33,0.33,0,0,1,.45.13l1.54,2.79c1,1.89,1.9,3.51,2.91,5.07,2,3,1.43,5.12-1.81,7.33-53.49,36.5-78.84,88.11-75.38,153.43,0.22,4.23-.43,6.13-5.13,6.93a158.29,158.29,0,0,0-57,21.72c-37,23-61.62,55.62-73.13,97-13,46.66-6.33,91.67,19.74,133.8,16.54,26.71,39.69,47.2,68.82,60.89,36,16.91,73.49,20.63,111.45,11C351,677.16,353.22,678.26,355.19,682.92Zm53.22,126.83c-17.69-41.46-36-84.34-53.85-126.57-1.84-4.36-3.72-5.28-8.38-4.1-38.12,9.63-75.77,5.9-111.91-11.07-29.25-13.76-52.5-34.33-69.11-61.14-26.18-42.3-32.84-87.5-19.81-134.35,11.55-41.57,36.26-74.33,73.42-97.39A159,159,0,0,1,276,353.3c4.42-.75,4.78-2.39,4.57-6.22-1.74-32.66,3.71-62.14,16.18-87.64,12.55-25.67,32.57-48,59.49-66.38,3-2,3.38-3.69,1.62-6.39-1-1.6-1.92-3.23-2.94-5.11-0.43-.8-0.89-1.63-1.38-2.5l-3,1.44c-2.35,1.13-4.58,2.2-6.78,3.38-6.49,3.51-7.09,3.34-10.76-3.16l-0.27-.5c-0.19-.32-0.38-0.65-0.55-1-2-3.73-2.84-5.65-2.34-7.24s2.58-2.77,6.14-4.59c2-1,4-2.14,6.11-3.32l2.92-1.64-1.73-3.58c-1.38-2.87-2.68-5.57-4.16-8.22-1.18-2.12-1.52-3.75-1.08-5.16s1.7-2.62,3.93-3.71l0.44-.22c5-2.46,7.58-3.7,9.59-3s3.35,3.39,5.93,8.73c1.79,3.66,2.68,5.51,3.91,5.89s3-.6,6.49-2.55c5.73-3.19,8.6-4.69,10.85-3.94s3.57,3.6,6.19,9.47c1.61,3.62.8,5.91-2.7,7.68-2.89,1.45-5.79,3-8.59,4.42l-3.4,1.77c0,0.32.06,0.59,0.07,0.83a4.31,4.31,0,0,0,.17,1.08c2,5.35,3,8,4.66,8.8s4.18-.27,9.21-2.28l0.51-.21c43.36-17.35,87.09-16.35,130,3,9.87,4.45,19.16,10.56,28.15,16.48l5.42,3.55c2.92,1.89,4.82,1.93,7.51.15,42.25-27.86,88.14-35.46,136.42-22.6,42.81,11.4,76,36.31,98.75,74,28.4,47.12,32.59,97.4,12.46,149.42a155.75,155.75,0,0,1-51.17,68.16c-3.6,2.78-4.15,4.93-2.3,9.24,21.82,50.85,43.89,102.61,65.23,152.65l18.57,43.58a0.34,0.34,0,0,1-.17.44l-408.07,174a0.34,0.34,0,0,1-.44-0.19l-2.86-6.69Z" transform="translate(-138.89 -138.38)"/></svg>